# xmcd
#
# Track frame offsets:
#	150
#	13319
#	32811
#	48120
#	63024
#	79214
#	96418
#	115630
#	129367
#	145414
#	157247
#	167420
#	179879
#	190323
#	205418
#	216087
#
# Disc length: 3108 seconds
#
# Revision: 1
# Processed by: cddbd v1.5.2PL0 Copyright (c) Steve Scherf et al.
# Submitted via: audiograbber 1.83.01
#
DISCID=e80c2210
DTITLE=Kenny Rogers - Golden Hits 1
DYEAR=1900
DGENRE=Country
TTITLE0=Ruby don't take your Love to Town
TTITLE1=She belives in Me
TTITLE2=For the Good Times
TTITLE3=Crazy
TTITLE4=The Wind beneath my Wings
TTITLE5=Somthing's burning
TTITLE6=I only  have Eyes for You
TTITLE7=I'm Gonna sing You a sad Song Suzie
TTITLE8=Evergreen
TTITLE9=Elvira
TTITLE10=Where does Rosy go
TTITLE11=Reuben James
TTITLE12=Goodteime Liberator
TTITLE13=Conditions 
TTITLE14=Ticket to nowhere
TTITLE15=Endless Love
EXTD=
EXTT0=
EXTT1=
EXTT2=
EXTT3=
EXTT4=
EXTT5=
EXTT6=
EXTT7=
EXTT8=
EXTT9=
EXTT10=
EXTT11=
EXTT12=
EXTT13=
EXTT14=
EXTT15=
PLAYORDER=
